<?xml version="1.0" encoding="utf-8"?>
<!-- Generator: Adobe Illustrator 23.0.1, SVG Export Plug-In . SVG Version: 6.00 Build 0)  -->
<svg version="1.1" id="logo" xmlns="http://www.w3.org/2000/svg" xmlns:xlink="http://www.w3.org/1999/xlink" x="0px" y="0px"
	 width="86.3px" height="32px" viewBox="0 0 86.3 32" enable-background="new 0 0 86.3 32" xml:space="preserve">
<g id="logo_x5F_32">
	<path d="M63.2,23.3c1.2,5.1,5.7,8.7,11.4,8.7c6.6,0,11.7-5,11.7-11.5c0-6.6-5.3-11.6-11.7-11.6c-5.3,0-8.6,3.4-10.6,5.7l-8.4,9.2
		V15l-5.8-3.3l-10,11.9V0.4h-5.8v31.2h5.8l10-11.9v11.9h5.8L63.2,23.3z M74.6,26.8c-3.3,0-6.1-2.7-6.1-6.3c0-3.6,2.8-6.3,6.1-6.3
		c3.3,0,6,2.7,6,6.3C80.6,24.1,77.9,26.8,74.6,26.8z"/>
	<circle cx="52.7" cy="4.2" r="4.2"/>
	<path d="M24.9,20.4C23.3,24,20,26.3,16,26.3c-5.5,0-9.9-4.5-9.9-10.3c0-5.8,4.4-10.3,9.9-10.3c4,0,7.3,2.4,8.9,6h6.5
		C29.5,4.9,23.3,0,16,0C7.2,0,0,7.2,0,16c0,8.8,7.2,16,16,16c7.3,0,13.5-4.9,15.4-11.6H24.9z"/>
</g>
</svg>
